<?xml version="1.0" encoding="utf-8"?>
<!-- Generator: Adobe Illustrator 28.0.0, SVG Export Plug-In . SVG Version: 6.00 Build 0)  -->
<svg version="1.1" id="Слой_1" xmlns="http://www.w3.org/2000/svg" xmlns:xlink="http://www.w3.org/1999/xlink" x="0px" y="0px"
	 viewBox="0 0 1000 802.2075195" enable-background="new 0 0 1000 802.2075195" xml:space="preserve">
<path fill-rule="evenodd" clip-rule="evenodd" fill="#1B51BF" d="M203.5222778,744.3334961
	c-12.9633789,0-22.4315186,6.5366821-22.4315186,19.0457764c0,11.7173462,8.2295685,19.8845215,20.5818176,19.8845215
	c8.2374725,0,16.4749756-4.5773926,21.6162567-11.1216431v-16.6866455c0-5.5649414-7.2105713-11.1216431-19.7665558-11.1216431
	V744.3334961L203.5222778,744.3334961z M483.721344,742.0211792c0.6115417,21.9613037,14.6173706,37.8482056,38.7027893,37.8482056
	c14.6252441,0,25.7468872-7.9238281,29.6500244-12.901062c1.8496704,1.3950195,3.7148438,3.4798584,3.7148438,8.331604
	c0,10.9257812-13.1829834,26.0368042-43.8598938,26.0368042c-30.8726807,0-56.0084534-24.6183472-56.0084534-56.7998657
	c0-35.4342041,23.2701721-60.7581787,57.6619873-60.7581787c31.2646484,0,45.6941528,23.0271606,45.6941528,42.637207
	c0,5.7841797-1.2385864,11.1375122-3.715332,15.6049194h-71.8404846L483.721344,742.0211792L483.721344,742.0211792z
	 M527.3771362,727.8271484c4.9379883,0,5.149292-2.8920898,5.149292-6.7637939
	c-0.2113037-11.5529175-9.2878418-22.2512207-23.0664673-22.2512207c-17.9093018,0-24.9161682,15.0092163-25.5273132,29.0150146
	H527.3771362L527.3771362,727.8271484z M817.8513184,739.9443359c0,26.8365479,3.7227783,40.5131226,21.0284424,40.5131226
	c18.9049072,0,24.0775146-16.8823853,24.0775146-32.2208252v-29.2739868c0-10.0557861-4.7652588-13.9589233-15.659668-12.7830811
	c-4.5222168-11.3019409,10.4870605-18.4970093,18.9595947-20.1509399c2.6490479-0.4074097,5.133728-0.8152466,7.4222412-0.8152466
	c11.9213867,0,16.4983521,7.4381104,16.4983521,18.5518188c0,4.083374-0.3997803,11.5294189-0.3997803,42.3314209
	c0,13.0261841-0.2113037,19.8999634-0.2113037,22.055481c0,10.1419678,4.6949463,15.3070679,15.5814819,14.1237183
	c4.4594727,11.3253174-10.4553223,16.6941528-18.9672241,18.2698364c-2.6097412,0.3919067-4.9847412,0.7913818-6.9440918,0.7913818
	c-11.317688,0-13.6142578-7.3439331-15.8948364-17.8699341c-1.5986328,1.9752197-3.0723877,3.5897827-6.1447144,6.5521851
	c-7.4143066,6.9440918-17.0861206,11.1216431-28.0119629,11.1216431c-11.9448242,0-22.0321655-4.5849609-28.4198608-12.1091919
	c-9.8754883-11.7172852-9.8754883-26.8206787-9.8754883-48.8761597v-21.1853638
	c0-10.0557861-4.7417603-13.9589233-15.6442871-12.7835083c-4.5301514-11.3018799,10.5106201-18.4970093,18.9437866-20.1508789
	c2.6725464-0.4074707,5.1337891-0.8152466,7.4067993-0.8152466c11.928894,0,16.4669189,7.4381104,16.4669189,18.5517578
	l-0.2111816,36.1712646L817.8513184,739.9443359L817.8513184,739.9443359z M765.77771,742.2487183
	c0-34.8151245-24.0854492-58.4772339-57.442749-58.4772339c-30.8727417,0-58.265625,23.6621094-58.265625,58.4772339
	c0,35.2542725,25.7314453,58.8847046,57.2390747,58.8847046C740.6502686,801.1334229,765.77771,777.1107178,765.77771,742.2487183
	L765.77771,742.2487183L765.77771,742.2487183z M249.028183,772.925293c0,8.8799438,5.7528381,11.7093506,15.8479462,13.1047363
	c-0.6191101,10.3143311-7.8300476,14.3115234-16.2633209,15.1033936
	c-9.4760284,0.7913818-18.7400208-3.5974121-22.4394073-13.4888306
	c-4.3343964,3.9345093-17.0940857,13.8807373-33.7727509,13.8807373c-22.8468781,0-39.940918-15.3070679-39.940918-36.1553955
	c0-22.0394897,19.1474609-35.0974121,46.1170654-35.0974121c9.2798309,0,18.935791,1.9279175,24.7044678,4.9141235v-14.7583008
	c0-13.22229-5.7686768-21.6162109-20.7854767-21.6162109c-3.0958252,0-9.8835144,0.8152466-15.2443848,2.8527832
	c0.6190948,2.0927124,1.0423889,4.326416,1.0423889,6.3798218c0,8.0726929-5.1492004,14.6173096-13.7945099,14.6173096
	c-7.6263428,0-13.3946533-6.1447144-13.3946533-13.9902954c0-14.4135742,18.12854-24.9082031,43.2487793-24.9082031
	c19.9706726,0,32.1267548,4.7338257,38.506958,12.9558716c5.7528076,7.234375,6.1681824,18.3560181,6.1681824,34.4076538v41.798584
	L249.028183,772.925293L249.028183,772.925293z M736.3389893,743.9415894c0,26.749939-11.5370483,41.2890015-27.7927856,41.2890015
	c-14.4136353,0-28.4118042-14.5311279-28.4118042-46.2583618c0-24.7203979,10.2908936-40.1525879,27.1732178-40.1525879
	c16.6707764-0.0059814,29.0310059,17.1019897,29.0310059,45.1219482H736.3389893L736.3389893,743.9415894z M330.5484619,703.3343506
	c0.6190796,7.0227051,6.5914612,11.9447632,13.5828552,11.9447632c8.8565674,0,14.2098694-7.8534546,14.2098694-15.4559937
	c0-10.7141724-8.6448975-16.2633057-17.2977295-16.2633057c-9.8755493,0-20.3781128,7.4222412-26.3425903,18.5204468
	l-0.4153442,0.2037354c-1.8497314-9.8600464-6.5915222-17.2977905-16.4749756-17.2977905
	c-2.2650757,0-4.7338562,0.4233398-7.4067383,1.2385864c-8.2374573,2.46875-20.3860474,8.8331299-15.8479614,20.1509399
	c11.52948-2.2182617,15.6442566,1.661438,15.6442566,11.7172852v47.8805542c0,9.507019-1.2306519,13.4887085-4.5301514,16.2788086
	c-3.0958252,2.3671265-6.3798523,3.3467407-8.4412231,3.7542114c-4.7338257,10.3143311,4.5301514,13.5280762,27.3849487,13.5280762
	c22.8548279,0,30.6769409-3.2058105,25.9430847-13.5280762c-2.0613708-0.4154053-7.8221436-1.3950806-10.9100037-3.7542114
	c-3.2998962-2.7901001-4.7338562-6.7717896-4.7338562-16.2788086v-28.882019
	c-0.0060425-25.7468872,9.4601746-32.5186768,15.6362915-33.7572021H330.5484619L330.5484619,703.3343506z M613.8433228,686.6397705
	h29.4384155c3.5036011,8.4257202-1.2306519,15.2208862-7.8221436,15.8479614
	c-2.0613403,0.2191772-4.3264771,0.2191772-6.3798828,0.2191772c-5.3609009,0-10.7062378-0.4232788-14.4135742-0.4232788v63.6970825
	c0,9.5070801,1.6459961,13.4887695,4.9379272,16.2788086c3.0958252,2.3671875,10.3068237,3.3468018,12.3681641,3.7542114
	c4.7338257,10.3143921-6.395752,13.5281372-29.2426147,13.5281372s-32.3149414-3.2058716-27.5886841-13.5281372
	c2.0534668-0.4153442,5.3609009-1.3950195,8.4412231-3.7542114c3.2919922-2.7904053,4.522522-6.7717285,4.522522-16.2788086
	V701.852356l-17.2901611-0.6115112c-3.5036011-8.4098511,1.2305908-14.3977051,8.2295532-14.3977051h8.6608276v-8.2374878
	c0-16.6787109,3.0803223-25.9506226,7.2030029-32.12677c6.3718872-9.8834839,17.2902222-16.6707153,34.3684082-16.6707153
	c21.6242065,0,39.118103,10.0871582,39.118103,25.3156128c0,6.5914917-4.5301514,14.6173706-13.99823,14.6173706
	c-6.991394,0-13.5828857-5.9724121-13.5828857-13.3712158c0-3.1037598,1.2385864-6.395752,2.8765869-8.4412231
	c-2.4612427-2.8841553-7.6104736-4.3343506-12.5559692-4.3343506c-14.2098999,0-17.2902222,10.5025635-17.2902222,23.6779785
	v19.3670654L613.8433228,686.6397705L613.8433228,686.6397705z M424.2251587,703.3343506
	c0.6191101,7.0227051,6.5914917,11.9447632,13.5907898,11.9447632c8.8566284,0,14.2019958-7.8534546,14.2019958-15.4559937
	c0-10.7141724-8.644928-16.2633057-17.289856-16.2633057c-9.8834839,0-20.3859863,7.4222412-26.3425598,18.5204468
	l-0.4233093,0.2037354c-1.8417664-9.8600464-6.5835266-17.2977905-16.46698-17.2977905
	c-2.2571716,0-4.7338867,0.4233398-7.4067688,1.2385864c-8.2454224,2.46875-20.3939514,8.8331299-15.8558655,20.1509399
	c11.5294189-2.2182617,15.6362915,1.661438,15.6362915,11.7172852v47.8805542c0,9.507019-1.2226868,13.4887085-4.5222168,16.2788086
	c-3.0878601,2.3671265-6.3718872,3.3467407-8.4256897,3.7542114c-4.7417908,10.3143311,4.5301208,13.5280762,27.3694458,13.5280762
	c22.8468628,0,30.684845-3.2058105,25.9430542-13.5280762c-2.0534363-0.4154053-7.8141785-1.3950806-10.9100037-3.7542114
	c-3.2919617-2.7901001-4.7338562-6.7717896-4.7338562-16.2788086v-28.882019
	c-0.0060425-25.7468872,9.4601746-32.5186768,15.636261-33.7572021H424.2251587L424.2251587,703.3343506z M972.1762085,703.3339233
	c0.6897583,7.0227661,6.7090454,11.9448242,13.7393799,11.9448242c8.7314453,0,14.0844116-7.8534546,14.0844116-15.4559937
	c0-10.7141724-8.5194702-16.2633057-17.289978-16.2633057c-9.8440552,0-20.2290649,7.4222412-26.1780396,18.5204468
	l-0.6035767,0.2033081c-1.8028564-9.8599854-6.5836182-17.2977295-16.2867432-17.2977295
	c-2.4140625,0-4.7576294,0.4232788-7.5791016,1.2381592c-8.1199341,2.468811-20.229126,8.8331299-15.8165283,20.1509399
	c11.5683594-2.2182007,15.6204224,1.661499,15.6204224,11.7172852v47.8806152c0,9.506958-1.1834106,13.4887085-4.5849609,16.2787476
	c-2.954834,2.3670654-6.3484497,3.3468018-8.3161011,3.7542114c-4.7811279,10.3143311,4.569458,13.5280151,27.4083862,13.5280151
	c22.8468628,0,30.5751953-3.2057495,25.7941284-13.5280151c-1.9593506-0.4154053-7.7200928-1.3950195-10.9259033-3.7542114
	c-3.1350098-2.7900391-4.5222168-6.7717896-4.5222168-16.2787476v-28.8820801
	c0.0079956-25.7468872,9.3112793-32.5186768,15.4560547-33.7572021L972.1762085,703.3339233L972.1762085,703.3339233z
	 M972.1762085,703.3339233L972.1762085,703.3339233L972.1762085,703.3339233L972.1762085,703.3339233z"/>
<path fill-rule="evenodd" clip-rule="evenodd" fill="#1B51BF" d="M0,719.4801025
	c0,51.9564209,35.8106728,82.727417,74.7250595,82.727417c35.0033035,0,59.4961777-24.6103516,59.4961777-45.0984497
	c0-10.9099731-6.787674-18.8416748-15.6442413-18.8416748c-9.0602646,0-16.6707382,6.1447144-16.6707382,16.7020874
	c0,6.7404175,3.6994247,10.510498,6.3798447,13.4807739c-4.7417831,9.1543579-14.8289795,16.6866455-30.4807587,16.6866455
	c-25.9351006,0-44.6671562-27.0168457-44.6671562-65.868103c0-38.8984985,17.9013252-66.0797119,43.8519325-66.0797119
	c15.6517715,0,25.7313614,7.6183472,30.4731827,16.6865845c-2.6804199,3.0803223-6.3797989,6.7876587-6.3797989,13.5828857
	c0,10.5025024,7.6183701,16.6707153,16.6786728,16.6707153c8.8565674,0,15.6362305-8.0023804,15.6362305-18.935791
	c0-20.3939819-24.4927979-45.0905151-59.4961777-45.0905151C34.9799004,636.0957642,0,669.8670044,0,719.4801025L0,719.4801025z"/>
<path fill-rule="evenodd" clip-rule="evenodd" fill="#FD0202" d="M337.2106323,17.8935566L118.7652664,229.2223511
	c-10.9100342,9.2639923-17.8779297,20.1430664-17.8779297,35.7086487c0,15.4953003,6.9754639,26.4131775,17.8779297,35.7478943
	l218.4453735,211.2582397c1.4029236,1.4343872,2.758667,2.0065918,3.9110413,2.0065918
	c2.0693054,0,3.495697-1.8811646,3.4329529-4.0914001c-0.0627441-1.3008423-0.6270142-2.7979736-1.9203796-4.0913086
	c-51.2745972-63.7050781-88.5819397-136.768219-88.5819397-240.0617065
	c0-103.3560333,37.3077087-177.8536072,88.5819397-241.6058807c1.2933655-1.2775059,1.8576355-2.7510567,1.9203796-4.0833321
	c0.070282-2.2571621-1.3636475-4.083416-3.4329529-4.083416c-1.1520081-0.0223799-2.5081177,0.5408535-3.9110413,1.9672031
	V17.8935566L337.2106323,17.8935566z M337.2106323,17.8935566L337.2106323,17.8935566L337.2106323,17.8935566
	L337.2106323,17.8935566z"/>
<path fill-rule="evenodd" clip-rule="evenodd" fill="#1B51BF" d="M505.1494141,0
	c-85.53302,0-118.9530945,121.2102966-118.9530945,265.6834412c0,144.5197449,33.4200745,264.1157532,118.9530945,264.1157532
	c51.3293457,0,95.0792847-30.0578613,95.2206421-54.7623596c0.0223389-5.4081421-2.0613403-10.5887146-6.5994263-15.1112976
	c-24.3284302-23.505249-33.8433838-46.9950562-33.9136963-67.725708
	c-0.1568604-39.5728455,34.1726074-69.0505066,65.821228-69.0505066c43.5072632,0,69.1680298,34.1960449,69.1680298,78.479248
	c0,41.9633484-17.8779297,76.911499-37.3311768,104.9000854c-0.7680054,1.1444092-1.1130371,2.4219055-1.1130371,3.542511
	c0.0158691,2.194397,1.3088379,3.9972534,3.2446899,3.9972534c1.1758423,0,2.5549927-0.6270752,4.0599976-2.1396179
	L882.2068481,300.67099c10.9099121-9.3268127,17.8778687-20.2526855,17.8778687-35.7478638
	c0-15.558197-6.9755249-26.4447479-17.8778687-35.7086639L663.706665,17.8855801
	c-1.4970703-1.4970703-2.8765869-2.1319981-4.0599976-2.1319981c-1.9517212,0-3.229187,1.8181973-3.2446899,4.0206718
	c0,1.1284981,0.3446655,2.390543,1.1130371,3.5504551c19.4452515,27.9492207,37.3311768,62.9370193,37.3311768,104.8686676
	c0,44.2517853-25.6607666,78.479248-69.1680298,78.479248c-31.6486206,0-65.9780884-29.4542694-65.821228-69.0345917
	c0.0703125-20.7307129,9.5856323-44.2439804,33.9136963-67.7257538c4.5380859-4.5459824,6.6228638-9.6796875,6.5994263-15.0953789
	C600.2290649,30.0734081,556.4787598,0,505.1494141,0L505.1494141,0z"/>
</svg>
