<svg id="logosandtypes_com" xmlns="http://www.w3.org/2000/svg" viewBox="0 0 150 150.2"><path d="M0 .2h150v150H0V.2z" fill="none"/><path d="M120.3 16.3c9.8 0 17.8 8 17.8 17.8v79.5c0 9.8-8 17.8-17.8 17.8H98.1c7.1-.7 14.3-2.7 21-6.1 4.2-2.2 8.2-4.8 11.7-7.9l-10.6-21.5c-12.4 15.3-34.8 17.6-50.1 5.3-2.3-1.9-4.4-4.1-6.2-6.5 33.9-3.1 40.7-24.9 39.2-40.9-6.7 16.3-28.1 22.6-45.7 24h-.2C55 58.1 68.9 40.4 88.4 38.1c1.1-.1 2.3-.2 3.5-.2L81.3 16.3h39z" fill="#d90618"/><path d="M40.8 99.9c-11.4 5.5-19.8 14.6-24 24.4 1.6-20.8 9.7-32.5 18.8-39l-.1-.4c-6.3-31.6 14.2-62.3 45.8-68.6H31.1c-9.8 0-17.8 8-17.8 17.8v79.5c0 9.8 8 17.8 17.8 17.8h56.1c-19.2-1.8-37-13.1-46.4-31.5z" fill="#2161ab"/></svg>